<svg width="24" height="18" viewBox="0 0 24 18" xmlns="http://www.w3.org/2000/svg" xmlns:xlink="http://www.w3.org/1999/xlink">
    <path id="path1" fill="#ffffff" stroke="none" d="M 2.4 0 L 21.6 0 C 22.925484 0 24 1.007359 24 2.25 L 24 15.75 C 24 16.992641 22.925484 18 21.6 18 L 2.4 18 C 1.074517 18 0 16.992641 0 15.75 L 0 2.25 C 0 1.007359 1.074517 0 2.4 0 Z"/>
    <path id="path2" fill="#ec1c24" stroke="none" d="M 0 2.86907 C 0 1.284531 1.26414 0 2.82353 0 L 21.1765 0 C 22.735901 0 24 1.284531 24 2.86907 L 24 15.130899 C 24 16.7155 22.735901 18 21.1765 18 L 2.82353 18 C 1.26414 18 0 16.7155 0 15.130899 L 0 2.86907 Z"/>
    <path id="path3" fill="#ffd84d" stroke="none" d="M 12.2764 5.48304 C 12.2846 4.871971 12.8261 4.45153 12.8489 3.63755 C 13.236601 4.125229 12.5957 5.03921 12.8231 5.56958 C 12.9272 4.967871 13.5266 4.63689 13.6775 3.83695 C 13.984501 4.379601 13.207899 5.18189 13.3494 5.74091 C 13.5459 5.162 14.1903 4.929859 14.464001 4.162661 C 14.6821 4.74683 13.7903 5.41754 13.843 5.99177 C 14.1271 5.45146 14.8002 5.32281 15.1908 4.60766 C 15.315399 5.21873 14.3283 5.7415 14.290899 6.31748 C 14.656401 5.82804 15.3417 5.80582 15.838699 5.16084 C 15.866199 5.78418 14.809601 6.14556 14.682699 6.70868 C 15.1201 6.28239 15.7995 6.36777 16.3913 5.80816 C 16.321699 6.428 15.2218 6.62038 15.0072 7.1566 C 15.506599 6.804 16.165001 6.99463 16.836901 6.53501 C 16.6714 7.1361 15.554501 7.1543 15.2598 7.6501 C 15.8071 7.38 16.427 7.6712 17.163799 7.3221 C 16.905899 7.8893 15.799 7.7326 15.43 8.1764 C 16.013599 7.9951 16.5814 8.3805 17.3626 8.1507 C 17.017599 8.6711 15.951 8.3425 15.517099 8.7232 C 16.121201 8.6354 16.6217 9.1038 17.428699 8.9998 C 17.0082 9.46 16.004801 8.9688 15.517099 9.2763 C 16.128201 9.2845 16.548599 9.8266 17.361401 9.8482 C 16.873699 10.2377 15.9604 9.5944 15.43 9.8231 C 16.0329 9.9272 16.363199 10.5265 17.163799 10.6774 C 16.621099 10.9844 15.8183 10.2079 15.2586 10.3494 C 15.837601 10.5458 16.0709 11.1902 16.836901 11.4639 C 16.2533 11.6832 15.5832 10.7903 15.0072 10.8429 C 15.5487 11.1271 15.6779 11.8001 16.3913 12.1908 C 15.780199 12.3153 15.258101 11.3282 14.681499 11.2908 C 15.171499 11.6563 15.193199 12.3416 15.838699 12.8387 C 15.216 12.8661 14.8528 11.8095 14.290899 11.6826 C 14.717199 12.12 14.631201 12.7995 15.1908 13.3913 C 14.5704 13.321699 14.378599 12.2217 13.843 12.0071 C 14.195 12.5065 14.003799 13.165001 14.464001 13.8368 C 13.862301 13.6714 13.8447 12.5545 13.3494 12.2598 C 13.620199 12.8071 13.327801 13.426901 13.6775 14.1637 C 13.109699 13.9058 13.266399 12.7989 12.8231 12.4299 C 13.003799 13.0135 12.6197 13.581301 12.8489 14.362499 C 12.3284 14.0175 12.6571 12.9509 12.2764 12.517 C 12.3641 13.121099 11.8957 13.6217 11.9998 14.4286 C 11.5396 14.0082 12.0308 13.0047 11.7232 12.517 C 11.715 13.128099 11.1736 13.548599 11.1507 14.361401 C 10.7619 13.874901 11.4039 12.9603 11.1759 12.4299 C 11.0724 13.032801 10.4724 13.363199 10.3221 14.1637 C 10.0152 13.621099 10.7917 12.8182 10.6496 12.2598 C 10.4531 12.8375 9.8087 13.070801 9.5351 13.8368 C 9.3164 13.2533 10.2093 12.5831 10.1567 12.0071 C 9.8719 12.5486 9.1988 12.6779 8.8088 13.3913 C 8.6843 12.7802 9.6713 12.258 9.7087 11.6826 C 9.3433 12.1715 8.6585 12.1931 8.1615 12.8387 C 8.1334 12.2159 9.1906 11.8528 9.3175 11.2908 C 8.8801 11.7171 8.2001 11.6311 7.6083 12.1908 C 7.6785 11.5703 8.779 11.3785 8.9924 10.8429 C 8.4936 11.1949 7.8352 11.0037 7.1633 11.4639 C 7.3294 10.8622 8.4463 10.8447 8.741 10.3494 C 8.1931 10.6201 7.5732 10.3289 6.83701 10.6774 C 7.0955 10.1096 8.2012 10.2663 8.5702 9.8231 C 7.9866 10.0038 7.42 9.6196 6.6382 9.8482 C 6.98203 9.329 8.0498 9.6564 8.4831 9.2763 C 7.8785 9.3641 7.3791 8.8951 6.57153 8.9998 C 6.99256 8.5401 7.9954 9.0307 8.4831 8.7232 C 7.8726 8.715 7.4522 8.1735 6.6382 8.1507 C 7.1259 7.7618 8.0399 8.4039 8.5702 8.1758 C 7.9679 8.0723 7.6375 7.4724 6.8376 7.3221 C 7.3802 7.0145 8.1825 7.7916 8.7416 7.6496 C 8.1627 7.4531 7.9305 6.80867 7.1633 6.53501 C 7.7475 6.31631 8.4182 7.2092 8.9924 7.1566 C 8.4515 6.87183 8.3235 6.19878 7.6083 5.80874 C 8.2194 5.68419 8.7421 6.67126 9.3181 6.70868 C 8.8287 6.34321 8.8065 5.65846 8.1615 5.16142 C 8.7842 5.13394 9.1462 6.19059 9.7093 6.31748 C 9.283 5.88008 9.3684 5.20001 8.8088 4.60824 C 9.4281 4.67841 9.621 5.77892 10.1572 5.99236 C 9.8041 5.49356 9.9953 4.835711 9.5357 4.16324 C 10.1368 4.329309 10.1549 5.4462 10.6508 5.74091 C 10.3806 5.193 10.6718 4.57316 10.3227 3.83754 C 10.8899 4.095409 10.7332 5.20118 11.1771 5.57016 C 10.9958 4.98658 11.3811 4.41995 11.1513 3.63813 C 11.6718 3.98197 11.3431 5.04973 11.7238 5.48304 C 11.6355 4.878399 12.1045 4.379021 12.0004 3.57147 C 12.46 3.991909 11.9688 4.99535 12.2764 5.48304 Z"/>
    <path id="path4" fill="#e8112d" stroke="none" d="M 12.0005 11.8572 C 12.3758 11.8571 12.7473 11.7831 13.093901 11.6395 C 13.4405 11.4958 13.7554 11.2853 14.0207 11.0199 C 14.2859 10.7546 14.4963 10.4395 14.639799 10.0929 C 14.7834 9.7462 14.857201 9.3746 14.8571 8.9994 C 14.857 8.6242 14.7831 8.2527 14.6394 7.9061 C 14.495701 7.5595 14.2852 7.2446 14.019899 6.97931 C 13.754499 6.71405 13.439501 6.50366 13.0928 6.36015 C 12.7461 6.21663 12.3746 6.14281 11.9994 6.14288 C 11.2416 6.14304 10.515 6.44421 9.9792 6.98013 C 9.4435 7.5161 9.1427 8.2428 9.1428 9.0006 C 9.143 9.7584 9.4441 10.485 9.9801 11.0207 C 10.516 11.5565 11.2428 11.8573 12.0005 11.8572 Z"/>
    <path id="path5" fill="#ffd84d" stroke="none" d="M 11.9995 6.47943 C 12.7372 6.47943 13.4 6.79524 13.8613 7.3002 C 13.137199 7.3732 12.5233 7.5441 11.9995 7.8039 C 11.4757 7.5441 10.8612 7.3732 10.1382 7.3002 C 10.3741 7.0412 10.6616 6.8344 10.9821 6.69305 C 11.3026 6.55171 11.6492 6.47895 11.9995 6.47943 Z M 11.8092 7.9065 C 11.7514 7.9387 11.6944 7.9723 11.6383 8.0072 C 11.1687 7.758 10.606 7.5971 9.9373 7.5494 C 9.9678 7.5063 9.9998 7.4642 10.0333 7.4233 C 10.728 7.4852 11.3143 7.6513 11.8092 7.9065 Z M 12.1916 7.9065 C 12.2499 7.9389 12.3065 7.9725 12.3618 8.0072 C 12.832 7.758 13.3941 7.5971 14.062901 7.5494 C 14.0326 7.5063 14.0007 7.4642 13.9674 7.4233 C 13.2722 7.4852 12.6865 7.6513 12.1916 7.9065 Z M 9.853 7.679 C 9.8263 7.7224 9.801 7.7666 9.777 7.8116 C 10.3992 7.8257 10.9213 7.9695 11.3502 8.2064 C 11.395 8.1725 11.4406 8.1397 11.4869 8.108 C 11.0391 7.8635 10.4976 7.7109 9.853 7.679 Z M 9.7764 10.1878 C 9.5596 9.8149 9.4795 9.4619 9.4795 9 C 9.4795 8.6229 9.5608 8.2671 9.7081 7.9471 C 10.3103 7.943 10.814 8.0744 11.2253 8.303 C 10.6166 8.802 10.1223 9.3865 9.7764 10.1878 Z M 10.9725 11.3002 C 10.8594 11.2566 10.7362 11.1335 10.6314 11.0746 C 10.6909 10.1277 11.134 9.3488 11.7514 8.6936 C 11.7974 8.7384 11.8416 8.7832 11.884 8.8309 C 11.3101 9.502 10.9413 10.3728 10.9725 11.3002 Z M 14.147699 7.679 C 14.1742 7.722 14.199499 7.7662 14.2237 7.8116 C 13.600901 7.8257 13.078899 7.9695 12.6505 8.2064 C 12.6057 8.1724 12.5599 8.1396 12.5133 8.108 C 12.9616 7.8635 13.502501 7.7109 14.147699 7.679 Z"/>
    <path id="path6" fill="#ffd84d" stroke="none" d="M 14.2237 10.1884 C 14.440001 9.8155 14.5207 9.4619 14.5207 9 C 14.5207 8.6229 14.438801 8.267 14.2915 7.9471 C 13.689899 7.943 13.1856 8.0744 12.7743 8.303 C 13.3841 8.802 13.879101 9.3871 14.2237 10.1884 Z M 12.0001 9.0466 C 12.452 9.7736 12.5386 10.569 12.5139 11.4676 C 12.3177 11.5159 12.2116 11.5206 12.0001 11.5206 C 11.7886 11.5206 11.6825 11.5159 11.4863 11.4676 C 11.4616 10.615 11.5482 9.8013 12.0001 9.0466 Z M 13.0247 11.3002 C 13.1373 11.2566 13.263901 11.17 13.368799 11.1117 C 13.309299 10.1649 12.8656 9.3488 12.2482 8.6942 C 12.2027 8.7385 12.1587 8.7843 12.1162 8.8315 C 12.6912 9.502 13.055901 10.3728 13.0247 11.3002 Z M 11.6012 8.5593 C 11.5456 8.5133 11.488 8.4696 11.4286 8.4285 C 10.7893 8.9953 10.3144 9.654 10.0481 10.5467 C 10.1465 10.6592 10.1447 10.7423 10.2614 10.8354 C 10.4264 9.8968 10.9608 9.1785 11.6012 8.5593 Z M 12.3996 8.5593 C 12.4532 8.5151 12.5139 8.4686 12.5722 8.4285 C 13.2115 8.9953 13.684601 9.6658 13.9515 10.559 C 13.852501 10.6716 13.8384 10.7429 13.7206 10.8359 C 13.5562 9.8968 13.040001 9.1785 12.3996 8.5593 Z M 12.0001 8.0131 C 12.0319 8.032 12.1409 8.1003 12.1686 8.1186 C 12.1256 8.1451 12.0272 8.2117 12.0001 8.2299 C 11.9448 8.1915 11.8886 8.1543 11.8316 8.1186 C 11.8593 8.1003 11.9683 8.0314 12.0001 8.0131 Z M 11.6813 8.2234 C 11.6383 8.2559 11.5729 8.3059 11.5482 8.3271 C 11.6101 8.3678 11.6931 8.4308 11.7196 8.4515 C 11.7521 8.4238 11.8157 8.3672 11.8516 8.3413 C 11.7966 8.2996 11.7398 8.2603 11.6813 8.2234 Z M 12.3189 8.2234 C 12.3619 8.2559 12.4273 8.3059 12.452 8.3271 C 12.3935 8.3667 12.3363 8.4082 12.2806 8.4515 C 12.2487 8.4238 12.1845 8.3672 12.1486 8.3413 C 12.1928 8.3089 12.2859 8.2417 12.3189 8.2234 Z M 12.0001 8.4585 C 12.0278 8.4821 12.1097 8.5546 12.1315 8.5764 C 12.0857 8.6167 12.0419 8.6592 12.0001 8.7036 C 11.9587 8.659 11.915 8.6166 11.8693 8.5764 C 11.8905 8.5546 11.973 8.4827 12.0001 8.4585 Z"/>
</svg>
