<svg width="24" height="24" viewBox="0 0 24 24" fill="none" xmlns="http://www.w3.org/2000/svg">
<path d="M11.5189 3C7.92437 3 5 5.92437 5 9.51889C5 13.9798 10.8338 20.5287 11.0822 20.8053C11.3155 21.0651 11.7228 21.0647 11.9557 20.8053C12.2041 20.5287 18.0379 13.9798 18.0379 9.51889C18.0378 5.92437 15.1134 3 11.5189 3ZM11.5189 12.7987C9.71042 12.7987 8.23912 11.3274 8.23912 9.51889C8.23912 7.71038 9.71045 6.23909 11.5189 6.23909C13.3274 6.23909 14.7987 7.71042 14.7987 9.51893C14.7987 11.3274 13.3274 12.7987 11.5189 12.7987Z" fill="#0F2A59"/>
</svg>
