<svg width="24" height="18" viewBox="0 0 24 18" xmlns="http://www.w3.org/2000/svg" xmlns:xlink="http://www.w3.org/1999/xlink">
    <path id="path1" fill="#cb0c01" stroke="none" d="M 24 15 C 24 15.795601 23.719 16.558701 23.219 17.1213 C 22.718901 17.683901 22.0406 18 21.3333 18 L 2.66667 18 C 1.95942 18 1.28115 17.683901 0.781049 17.1213 C 0.280952 16.558701 0 15.795601 0 15 L 0 12 L 24 12 L 24 15 Z"/>
    <path id="path2" fill="#0027a6" stroke="none" d="M 0 6 L 24 6 L 24 12 L 0 12 L 0 6 Z"/>
    <path id="path3" fill="#fdf9f9" stroke="none" d="M 21.3333 0 L 2.66667 0 C 1.95942 0 1.28115 0.316071 0.781049 0.878679 C 0.280952 1.44129 0 2.20435 0 3 L 0 6 L 24 6 L 24 3 C 24 2.20435 23.719 1.44129 23.219 0.878679 C 22.718901 0.316071 22.0406 0 21.3333 0 Z"/>
</svg>
